# xmcd
#
# Track frame offsets: 
#        150
#        18701
#        31934
#        45735
#        61472
#        74018
#        86897
#        98768
#        110915
#        124097
#        141926
#        160145
#
# Disc length: 2311 seconds
#
# Revision: 0
# Processed by: cddbd v1.4PL0 Copyright (c) Steve Scherf et al.
# Submitted via: ExactAudioCopy v0.90b3
#
DISCID=b109050c
DTITLE=Suzy Bogguss - Have Yourself A Merry Little Christmas
DYEAR=1900
DGENRE=Country
TTITLE0=Have Yourself A Merry Little Christmas
TTITLE1=Mr. Santa
TTITLE2=Sleigh Ride
TTITLE3=Do You Hear What I Hear
TTITLE4=Winter Wonderland
TTITLE5=I Heard The Bells On Christmas Day
TTITLE6=Rudolph The Red-Nosed Reindeer
TTITLE7=Two-Step 'Round The Christmas Tree
TTITLE8=Baby It's Cold Outside (Duet With Delbert McClinton)
TTITLE9=Through Your Eyes
TTITLE10=O Holy Night
TTITLE11=Jingle Bells
EXTD=
EXTT0=
EXTT1=
EXTT2=
EXTT3=
EXTT4=
EXTT5=
EXTT6=
EXTT7=
EXTT8=
EXTT9=
EXTT10=
EXTT11=
PLAYORDER=
